# Blender v3.2.2 OBJ File: ''
# www.blender.org
mtllib billboard.mtl
o billboard
v 0.150000 0.149625 1.500000
v 5.850000 0.149625 1.500000
v 0.150000 0.149625 1.450000
v 5.850000 0.149625 1.450000
v 0.150000 2.400000 1.500000
v 0.150000 2.400000 1.450000
v 5.850000 2.400000 1.500000
v 5.850000 2.400000 1.450000
v 5.950000 0.050000 1.450000
v 0.050000 0.050000 1.450000
v 0.050000 2.500000 1.450000
v 5.950000 2.500000 1.450000
v 5.950000 2.500000 0.050000
v 5.950000 0.050000 0.050000
v 0.050000 2.500000 0.050000
v 0.050000 0.050000 0.050000
v 0.000000 2.550000 1.500000
v 6.000000 2.550000 1.500000
v 0.000000 2.550000 0.000000
v 6.000000 2.550000 0.000000
v 6.000000 0.000000 1.500000
v 6.000000 0.000000 0.000000
v 0.000000 0.000000 0.000000
v 0.000000 0.000000 1.500000
v 0.150000 0.149625 0.050000
v 5.850000 0.149625 0.050000
v 0.150000 0.149625 0.000000
v 5.850000 0.149625 0.000000
v 0.150000 2.400000 0.050000
v 0.150000 2.400000 0.000000
v 5.850000 2.400000 0.050000
v 5.850000 2.400000 0.000000
vn 0.0000 1.0000 0.0000
vn 1.0000 0.0000 0.0000
vn 0.0000 -1.0000 0.0000
vn -1.0000 0.0000 0.0000
vn 0.0000 0.0000 -1.0000
vn 0.0000 0.0000 1.0000
usemtl None
s off
f 1//1 2//1 3//1
f 3//1 2//1 4//1
f 5//2 1//2 6//2
f 6//2 1//2 3//2
f 7//3 5//3 8//3
f 8//3 5//3 6//3
f 2//4 7//4 4//4
f 4//4 7//4 8//4
f 8//5 9//5 4//5
f 4//5 9//5 10//5
f 4//5 10//5 3//5
f 3//5 10//5 6//5
f 6//5 10//5 11//5
f 6//5 11//5 8//5
f 8//5 11//5 12//5
f 8//5 12//5 9//5
f 12//4 13//4 9//4
f 9//4 13//4 14//4
f 12//3 11//3 13//3
f 13//3 11//3 15//3
f 10//1 9//1 16//1
f 16//1 9//1 14//1
f 17//1 18//1 19//1
f 19//1 18//1 20//1
f 21//2 22//2 18//2
f 18//2 22//2 20//2
f 23//4 24//4 19//4
f 19//4 24//4 17//4
f 10//2 16//2 11//2
f 11//2 16//2 15//2
f 2//6 21//6 7//6
f 7//6 21//6 18//6
f 7//6 18//6 17//6
f 2//6 1//6 21//6
f 21//6 1//6 24//6
f 24//6 1//6 5//6
f 24//6 5//6 17//6
f 17//6 5//6 7//6
f 23//3 22//3 24//3
f 24//3 22//3 21//3
f 25//1 26//1 27//1
f 27//1 26//1 28//1
f 29//2 25//2 30//2
f 30//2 25//2 27//2
f 31//3 29//3 32//3
f 32//3 29//3 30//3
f 26//4 31//4 28//4
f 28//4 31//4 32//4
f 26//6 14//6 31//6
f 31//6 14//6 13//6
f 31//6 13//6 15//6
f 26//6 25//6 14//6
f 14//6 25//6 16//6
f 16//6 25//6 29//6
f 16//6 29//6 15//6
f 15//6 29//6 31//6
f 23//5 28//5 22//5
f 22//5 28//5 32//5
f 22//5 32//5 20//5
f 20//5 32//5 19//5
f 19//5 32//5 30//5
f 19//5 30//5 23//5
f 23//5 30//5 27//5
f 23//5 27//5 28//5
